<svg width="183" height="188" viewBox="0 0 183 188" xmlns="http://www.w3.org/2000/svg">
<path fill-rule="evenodd" clip-rule="evenodd" d="M0 49C0 21.938 21.938 0 49 0H134C161.062 0 183 21.938 183 49C183 74.2026 163.973 94.9612 139.5 97.6948V132C139.5 146.653 135.19 160.554 126.815 170.919C118.345 181.402 105.9 188 90.5 188C75.0881 188 62.7521 181.39 54.4036 170.88C46.1604 160.503 42 146.608 42 132V97.5038C18.2539 94.1072 0 73.6853 0 49ZM146 26.5002L47.75 26.5003C35.4617 26.5004 25.5 36.462 25.5 48.7503C25.5 61.0387 35.4617 71.0004 47.75 71.0004H145.776C145.839 71.0119 145.945 71.035 146.085 71.0788C146.474 71.2002 147.147 71.4871 147.896 72.1901C148.978 73.2045 150.848 75.7028 151.635 81.5352C146.393 84.3826 140.385 86 134 86H49C28.5655 86 12 69.4345 12 49C12 28.5655 28.5655 12 49 12H134C149.093 12 162.076 21.0372 167.831 33.9958C166.262 32.7923 164.648 31.7858 163.053 30.9457C154.639 26.5141 146.341 26.5003 146 26.5002ZM167.5 60.5C167.107 66 164.75 70.0038 162.014 73.1719C160.605 68.8817 158.538 65.7176 156.104 63.4356C153.853 61.3261 151.526 60.2068 149.665 59.625C148.741 59.3364 147.936 59.181 147.312 59.0974C146.999 59.0555 146.729 59.0313 146.509 59.0175C146.399 59.0106 146.301 59.0064 146.216 59.0038C146.173 59.0025 146.134 59.0016 146.098 59.0011L146.046 59.0005L146.023 59.0004L146.011 59.0004C146.006 59.0004 146 59.0004 146 65.0004V59.0004H47.75C42.0891 59.0004 37.5 54.4113 37.5 48.7503C37.5 43.0894 42.0891 38.5003 47.75 38.5003L145.985 38.5003C145.985 38.5003 145.988 38.5004 145.994 38.5005C146.249 38.5065 151.911 38.6399 157.461 41.5632C160.288 43.052 162.978 45.2072 164.98 48.3703C166.958 51.4943 167.893 55 167.5 60.5ZM79.0244 98C79.1562 112.265 79.782 128.689 79.9528 132.96C79.9709 133.413 79.9784 133.722 79.9846 133.981C79.9925 134.308 79.9985 134.557 80.0216 134.919C80.3631 140.265 84.8146 144.5 90.2503 144.5C95.9112 144.5 100.5 139.911 100.5 134.25V98H79.0244ZM90.5 176C78.8498 176 69.9359 171.141 63.7999 163.416C57.5586 155.559 54 144.454 54 132V99H67.0338C67.1846 113.269 67.7954 129.264 67.9624 133.44C67.9667 133.549 67.9716 133.72 67.9774 133.926C67.9917 134.432 68.012 135.151 68.046 135.684C68.7885 147.307 78.4434 156.5 90.2503 156.5C102.539 156.5 112.5 146.538 112.5 134.25V99H127.5V132C127.5 144.409 123.841 155.507 117.481 163.377C111.217 171.129 102.162 176 90.5 176Z" />
</svg>
