<svg width="40" height="40" viewBox="0 0 40 40" fill="none" xmlns="http://www.w3.org/2000/svg">
<g clip-path="url(#clip0_1_732)">
<path d="M20.0004 40C31.0461 40 40.0004 31.0457 40.0004 20C40.0004 8.9543 31.0461 0 20.0004 0C8.95467 0 0.000366211 8.9543 0.000366211 20C0.000366211 31.0457 8.95467 40 20.0004 40Z" fill="#F0F0F0"/>
<path d="M40.0001 20C40.0001 11.4007 34.5726 4.06988 26.9565 1.24402V38.7561C34.5726 35.9302 40.0001 28.5993 40.0001 20Z" fill="#D80027"/>
<path d="M0 20C0 28.5993 5.4275 35.9302 13.0435 38.7561V1.24402C5.4275 4.06988 0 11.4007 0 20Z" fill="#6DA544"/>
</g>
<defs>
<clipPath id="clip0_1_732">
<rect width="40" height="40" fill="white"/>
</clipPath>
</defs>
</svg>
