<svg width="64" height="64" viewBox="0 0 64 64" fill="none" xmlns="http://www.w3.org/2000/svg">
<circle cx="32" cy="32" r="32" fill="#0089ED"/>
<path fill-rule="evenodd" clip-rule="evenodd" d="M9 24.25C9 17.4845 14.6344 12 21.5847 12H43.4153C50.3656 12 56 17.4845 56 24.25C56 30.5507 51.1133 35.7403 44.8279 36.4237V45C44.8279 48.6632 43.721 52.1386 41.57 54.7298C39.3946 57.3504 36.1984 59 32.2432 59C28.2849 59 25.1167 57.3475 22.9725 54.72C20.8554 52.1257 19.7869 48.6521 19.7869 45V36.3759C13.6882 35.5268 9 30.4213 9 24.25ZM46.4974 18.6251L21.2637 18.6251C18.1076 18.6251 15.5492 21.1155 15.5492 24.1876C15.5492 27.2597 18.1076 29.7501 21.2637 29.7501H46.4396C46.4558 29.753 46.4832 29.7588 46.5192 29.7697C46.619 29.8 46.7917 29.8718 46.9843 30.0475C47.2622 30.3011 47.7425 30.9257 47.9445 32.3838C46.5981 33.0957 45.0552 33.5 43.4153 33.5H21.5847C16.3365 33.5 12.082 29.3586 12.082 24.25C12.082 19.1414 16.3365 15 21.5847 15H43.4153C47.2917 15 50.626 17.2593 52.1042 20.4989C51.7011 20.1981 51.2867 19.9464 50.877 19.7364C48.7159 18.6285 46.585 18.6251 46.4974 18.6251ZM52.0191 27.125C51.9182 28.5 51.3128 29.501 50.6101 30.293C50.2484 29.2204 49.7174 28.4294 49.0922 27.8589C48.5143 27.3315 47.9166 27.0517 47.4385 26.9063C47.2013 26.8341 46.9946 26.7953 46.8342 26.7743C46.7539 26.7639 46.6845 26.7578 46.628 26.7544C46.5997 26.7527 46.5745 26.7516 46.5527 26.7509C46.5418 26.7506 46.5317 26.7504 46.5224 26.7503L46.5092 26.7501L46.5031 26.7501L46.5001 26.7501C46.5001 26.7501 46.4973 26.7501 46.4973 28.2501V26.7501H21.2637C19.8098 26.7501 18.6311 25.6028 18.6311 24.1876C18.6311 22.7724 19.8098 21.6251 21.2637 21.6251L46.4935 21.6251L46.4958 21.6251C46.5612 21.6266 48.0153 21.66 49.4408 22.3908C50.1668 22.763 50.8576 23.3018 51.3719 24.0926C51.8799 24.8736 52.12 25.75 52.0191 27.125ZM29.2959 36.5C29.3297 40.0663 29.4905 44.1722 29.5343 45.2401C29.539 45.3534 29.5409 45.4305 29.5425 45.4954C29.5445 45.5771 29.5461 45.6394 29.552 45.7298C29.6397 47.0663 30.783 48.125 32.179 48.125C33.6329 48.125 34.8116 46.9777 34.8116 45.5625V36.5H29.2959ZM32.2432 56C29.2511 56 26.9617 54.7852 25.3858 52.8541C23.7828 50.8898 22.8689 48.1134 22.8689 45V36.75H26.2163C26.2551 40.3172 26.4119 44.316 26.4548 45.36C26.4559 45.3872 26.4572 45.4299 26.4587 45.4814C26.4623 45.608 26.4676 45.7877 26.4763 45.921C26.667 48.8268 29.1467 51.125 32.179 51.125C35.3351 51.125 37.8935 48.6346 37.8935 45.5625V36.75H41.7459V45C41.7459 48.1023 40.8061 50.8769 39.1728 52.8443C37.564 54.7824 35.2383 56 32.2432 56Z" fill="white"/>
</svg>
